<svg xmlns="http://www.w3.org/2000/svg" viewBox="0 0 141.04 213.54"><rect x="5" y="5" width="131.03" height="162.07" rx="20.69" fill="#fff"/><path fill="#000" d="M115.34 172.07H25.69A25.72 25.72 0 010 146.38V25.69A25.71 25.71 0 0125.69 0h89.65A25.72 25.72 0 01141 25.69v120.69a25.73 25.73 0 01-25.66 25.69zM25.69 10A15.71 15.71 0 0010 25.69v120.69a15.71 15.71 0 0015.69 15.69h89.65A15.71 15.71 0 00131 146.38V25.69A15.71 15.71 0 00115.34 10z"/><rect fill="#000" x="19.66" y="34.83" width="101.72" height="10" rx="5"/><rect fill="#000" x="19.66" y="55.15" width="101.72" height="10" rx="5"/><path fill="#000" d="M121.38 128.94a35 35 0 10-53.6 29.63L52 207.79l17.8-11.18 8.59 16.93 8.69-27 6.69 21.36 9.65-15.66 17.39 9.59-13.96-44.53a35 35 0 0014.53-28.36zm-60 0a25 25 0 1125 25 25 25 0 01-25-25z"/></svg>
